TITLE ""
FILE "TOEIC LR Kinnojyukugo_05.mp3" MP3
  TRACK 01 AUDIO
    TITLE "TOEIC LR Kinnojyukugo_05_001"
    INDEX 01 00:00:00
  TRACK 02 AUDIO
    TITLE "TOEIC LR Kinnojyukugo_05_002"
    INDEX 01 00:00:12
  TRACK 03 AUDIO
    TITLE "TOEIC LR Kinnojyukugo_05_003"
    INDEX 01 00:01:53
  TRACK 04 AUDIO
    TITLE "TOEIC LR Kinnojyukugo_05_004"
    INDEX 01 00:02:17
  TRACK 05 AUDIO
    TITLE "TOEIC LR Kinnojyukugo_05_005"
    INDEX 01 00:04:24
  TRACK 06 AUDIO
    TITLE "TOEIC LR Kinnojyukugo_05_006"
    INDEX 01 00:05:25
  TRACK 07 AUDIO
    TITLE "TOEIC LR Kinnojyukugo_05_007"
    INDEX 01 00:07:04
  TRACK 08 AUDIO
    TITLE "TOEIC LR Kinnojyukugo_05_008"
    INDEX 01 00:07:42
  TRACK 09 AUDIO
    TITLE "TOEIC LR Kinnojyukugo_05_009"
    INDEX 01 00:10:05
  TRACK 10 AUDIO
    TITLE "TOEIC LR Kinnojyukugo_05_010"
    INDEX 01 00:11:06
  TRACK 11 AUDIO
    TITLE "TOEIC LR Kinnojyukugo_05_011"
    INDEX 01 00:12:47
  TRACK 12 AUDIO
    TITLE "TOEIC LR Kinnojyukugo_05_012"
    INDEX 01 00:13:11
  TRACK 13 AUDIO
    TITLE "TOEIC LR Kinnojyukugo_05_013"
    INDEX 01 00:15:41
  TRACK 14 AUDIO
    TITLE "TOEIC LR Kinnojyukugo_05_014"
    INDEX 01 00:16:43
  TRACK 15 AUDIO
    TITLE "TOEIC LR Kinnojyukugo_05_015"
    INDEX 01 00:17:73
  TRACK 16 AUDIO
    TITLE "TOEIC LR Kinnojyukugo_05_016"
    INDEX 01 00:18:38
  TRACK 17 AUDIO
    TITLE "TOEIC LR Kinnojyukugo_05_017"
    INDEX 01 00:20:27
  TRACK 18 AUDIO
    TITLE "TOEIC LR Kinnojyukugo_05_018"
    INDEX 01 00:21:28
  TRACK 19 AUDIO
    TITLE "TOEIC LR Kinnojyukugo_05_019"
    INDEX 01 00:22:47
  TRACK 20 AUDIO
    TITLE "TOEIC LR Kinnojyukugo_05_020"
    INDEX 01 00:23:13
  TRACK 21 AUDIO
    TITLE "TOEIC LR Kinnojyukugo_05_021"
    INDEX 01 00:25:08
  TRACK 22 AUDIO
    TITLE "TOEIC LR Kinnojyukugo_05_022"
    INDEX 01 00:26:14
  TRACK 23 AUDIO
    TITLE "TOEIC LR Kinnojyukugo_05_023"
    INDEX 01 00:28:14
  TRACK 24 AUDIO
    TITLE "TOEIC LR Kinnojyukugo_05_024"
    INDEX 01 00:28:54
  TRACK 25 AUDIO
    TITLE "TOEIC LR Kinnojyukugo_05_025"
    INDEX 01 00:31:32
  TRACK 26 AUDIO
    TITLE "TOEIC LR Kinnojyukugo_05_026"
    INDEX 01 00:32:32
  TRACK 27 AUDIO
    TITLE "TOEIC LR Kinnojyukugo_05_027"
    INDEX 01 00:33:51
  TRACK 28 AUDIO
    TITLE "TOEIC LR Kinnojyukugo_05_028"
    INDEX 01 00:34:15
  TRACK 29 AUDIO
    TITLE "TOEIC LR Kinnojyukugo_05_029"
    INDEX 01 00:35:71
  TRACK 30 AUDIO
    TITLE "TOEIC LR Kinnojyukugo_05_030"
    INDEX 01 00:36:73
  TRACK 31 AUDIO
    TITLE "TOEIC LR Kinnojyukugo_05_031"
    INDEX 01 00:38:13
  TRACK 32 AUDIO
    TITLE "TOEIC LR Kinnojyukugo_05_032"
    INDEX 01 00:38:50
  TRACK 33 AUDIO
    TITLE "TOEIC LR Kinnojyukugo_05_033"
    INDEX 01 00:41:17
  TRACK 34 AUDIO
    TITLE "TOEIC LR Kinnojyukugo_05_034"
    INDEX 01 00:42:19
  TRACK 35 AUDIO
    TITLE "TOEIC LR Kinnojyukugo_05_035"
    INDEX 01 00:43:49
  TRACK 36 AUDIO
    TITLE "TOEIC LR Kinnojyukugo_05_036"
    INDEX 01 00:44:10
  TRACK 37 AUDIO
    TITLE "TOEIC LR Kinnojyukugo_05_037"
    INDEX 01 00:46:54
  TRACK 38 AUDIO
    TITLE "TOEIC LR Kinnojyukugo_05_038"
    INDEX 01 00:47:53
  TRACK 39 AUDIO
    TITLE "TOEIC LR Kinnojyukugo_05_039"
    INDEX 01 00:48:64
  TRACK 40 AUDIO
    TITLE "TOEIC LR Kinnojyukugo_05_040"
    INDEX 01 00:49:28
  TRACK 41 AUDIO
    TITLE "TOEIC LR Kinnojyukugo_05_041"
    INDEX 01 00:51:51
  TRACK 42 AUDIO
    TITLE "TOEIC LR Kinnojyukugo_05_042"
    INDEX 01 00:52:60
  TRACK 43 AUDIO
    TITLE "TOEIC LR Kinnojyukugo_05_043"
    INDEX 01 00:54:67
  TRACK 44 AUDIO
    TITLE "TOEIC LR Kinnojyukugo_05_044"
    INDEX 01 00:55:29
  TRACK 45 AUDIO
    TITLE "TOEIC LR Kinnojyukugo_05_045"
    INDEX 01 00:58:02
  TRACK 46 AUDIO
    TITLE "TOEIC LR Kinnojyukugo_05_046"
    INDEX 01 00:59:03
  TRACK 47 AUDIO
    TITLE "TOEIC LR Kinnojyukugo_05_047"
    INDEX 01 01:00:32
  TRACK 48 AUDIO
    TITLE "TOEIC LR Kinnojyukugo_05_048"
    INDEX 01 01:00:69
  TRACK 49 AUDIO
    TITLE "TOEIC LR Kinnojyukugo_05_049"
    INDEX 01 01:02:70
  TRACK 50 AUDIO
    TITLE "TOEIC LR Kinnojyukugo_05_050"
    INDEX 01 01:03:70
  TRACK 51 AUDIO
    TITLE "TOEIC LR Kinnojyukugo_05_051"
    INDEX 01 01:06:11
  TRACK 52 AUDIO
    TITLE "TOEIC LR Kinnojyukugo_05_052"
    INDEX 01 01:06:46
  TRACK 53 AUDIO
    TITLE "TOEIC LR Kinnojyukugo_05_053"
    INDEX 01 01:08:63
  TRACK 54 AUDIO
    TITLE "TOEIC LR Kinnojyukugo_05_054"
    INDEX 01 01:09:74
  TRACK 55 AUDIO
    TITLE "TOEIC LR Kinnojyukugo_05_055"
    INDEX 01 01:12:24
  TRACK 56 AUDIO
    TITLE "TOEIC LR Kinnojyukugo_05_056"
    INDEX 01 01:12:65
  TRACK 57 AUDIO
    TITLE "TOEIC LR Kinnojyukugo_05_057"
    INDEX 01 01:17:05
  TRACK 58 AUDIO
    TITLE "TOEIC LR Kinnojyukugo_05_058"
    INDEX 01 01:18:06
  TRACK 59 AUDIO
    TITLE "TOEIC LR Kinnojyukugo_05_059"
    INDEX 01 01:19:24
  TRACK 60 AUDIO
    TITLE "TOEIC LR Kinnojyukugo_05_060"
    INDEX 01 01:19:61
  TRACK 61 AUDIO
    TITLE "TOEIC LR Kinnojyukugo_05_061"
    INDEX 01 01:21:46
  TRACK 62 AUDIO
    TITLE "TOEIC LR Kinnojyukugo_05_062"
    INDEX 01 01:22:45
  TRACK 63 AUDIO
    TITLE "TOEIC LR Kinnojyukugo_05_063"
    INDEX 01 01:24:09
  TRACK 64 AUDIO
    TITLE "TOEIC LR Kinnojyukugo_05_064"
    INDEX 01 01:24:48
  TRACK 65 AUDIO
    TITLE "TOEIC LR Kinnojyukugo_05_065"
    INDEX 01 01:26:59
  TRACK 66 AUDIO
    TITLE "TOEIC LR Kinnojyukugo_05_066"
    INDEX 01 01:27:58
  TRACK 67 AUDIO
    TITLE "TOEIC LR Kinnojyukugo_05_067"
    INDEX 01 01:29:18
  TRACK 68 AUDIO
    TITLE "TOEIC LR Kinnojyukugo_05_068"
    INDEX 01 01:29:55
  TRACK 69 AUDIO
    TITLE "TOEIC LR Kinnojyukugo_05_069"
    INDEX 01 01:32:09
  TRACK 70 AUDIO
    TITLE "TOEIC LR Kinnojyukugo_05_070"
    INDEX 01 01:33:10
  TRACK 71 AUDIO
    TITLE "TOEIC LR Kinnojyukugo_05_071"
    INDEX 01 01:35:21
  TRACK 72 AUDIO
    TITLE "TOEIC LR Kinnojyukugo_05_072"
    INDEX 01 01:35:60
  TRACK 73 AUDIO
    TITLE "TOEIC LR Kinnojyukugo_05_073"
    INDEX 01 01:38:23
  TRACK 74 AUDIO
    TITLE "TOEIC LR Kinnojyukugo_05_074"
    INDEX 01 01:39:22
  TRACK 75 AUDIO
    TITLE "TOEIC LR Kinnojyukugo_05_075"
    INDEX 01 01:40:57
  TRACK 76 AUDIO
    TITLE "TOEIC LR Kinnojyukugo_05_076"
    INDEX 01 01:41:23
  TRACK 77 AUDIO
    TITLE "TOEIC LR Kinnojyukugo_05_077"
    INDEX 01 01:43:65
  TRACK 78 AUDIO
    TITLE "TOEIC LR Kinnojyukugo_05_078"
    INDEX 01 01:44:65
  TRACK 79 AUDIO
    TITLE "TOEIC LR Kinnojyukugo_05_079"
    INDEX 01 01:46:22
  TRACK 80 AUDIO
    TITLE "TOEIC LR Kinnojyukugo_05_080"
    INDEX 01 01:46:60
  TRACK 81 AUDIO
    TITLE "TOEIC LR Kinnojyukugo_05_081"
    INDEX 01 01:48:45
  TRACK 82 AUDIO
    TITLE "TOEIC LR Kinnojyukugo_05_082"
    INDEX 01 01:49:46
  TRACK 83 AUDIO
    TITLE "TOEIC LR Kinnojyukugo_05_083"
    INDEX 01 01:51:59
  TRACK 84 AUDIO
    TITLE "TOEIC LR Kinnojyukugo_05_084"
    INDEX 01 01:52:23
  TRACK 85 AUDIO
    TITLE "TOEIC LR Kinnojyukugo_05_085"
    INDEX 01 01:55:33
  TRACK 86 AUDIO
    TITLE "TOEIC LR Kinnojyukugo_05_086"
    INDEX 01 01:56:37
  TRACK 87 AUDIO
    TITLE "TOEIC LR Kinnojyukugo_05_087"
    INDEX 01 01:57:61
  TRACK 88 AUDIO
    TITLE "TOEIC LR Kinnojyukugo_05_088"
    INDEX 01 01:58:22
  TRACK 89 AUDIO
    TITLE "TOEIC LR Kinnojyukugo_05_089"
    INDEX 01 02:00:50
  TRACK 90 AUDIO
    TITLE "TOEIC LR Kinnojyukugo_05_090"
    INDEX 01 02:01:51
  TRACK 91 AUDIO
    TITLE "TOEIC LR Kinnojyukugo_05_091"
    INDEX 01 02:02:72
  TRACK 92 AUDIO
    TITLE "TOEIC LR Kinnojyukugo_05_092"
    INDEX 01 02:03:37
  TRACK 93 AUDIO
    TITLE "TOEIC LR Kinnojyukugo_05_093"
    INDEX 01 02:05:53
  TRACK 94 AUDIO
    TITLE "TOEIC LR Kinnojyukugo_05_094"
    INDEX 01 02:06:54
  TRACK 95 AUDIO
    TITLE "TOEIC LR Kinnojyukugo_05_095"
    INDEX 01 02:08:01
  TRACK 96 AUDIO
    TITLE "TOEIC LR Kinnojyukugo_05_096"
    INDEX 01 02:08:38
  TRACK 97 AUDIO
    TITLE "TOEIC LR Kinnojyukugo_05_097"
    INDEX 01 02:10:74
  TRACK 98 AUDIO
    TITLE "TOEIC LR Kinnojyukugo_05_098"
    INDEX 01 02:11:73
  TRACK 99 AUDIO
    TITLE "TOEIC LR Kinnojyukugo_05_099"
    INDEX 01 02:14:23
  TRACK 100 AUDIO
    TITLE "TOEIC LR Kinnojyukugo_05_100"
    INDEX 01 02:14:60
  TRACK 101 AUDIO
    TITLE "TOEIC LR Kinnojyukugo_05_101"
    INDEX 01 02:17:64
  TRACK 102 AUDIO
    TITLE "TOEIC LR Kinnojyukugo_05_102"
    INDEX 01 02:18:67
  TRACK 103 AUDIO
    TITLE "TOEIC LR Kinnojyukugo_05_103"
    INDEX 01 02:20:13
  TRACK 104 AUDIO
    TITLE "TOEIC LR Kinnojyukugo_05_104"
    INDEX 01 02:20:51
  TRACK 105 AUDIO
    TITLE "TOEIC LR Kinnojyukugo_05_105"
    INDEX 01 02:23:28
  TRACK 106 AUDIO
    TITLE "TOEIC LR Kinnojyukugo_05_106"
    INDEX 01 02:24:27
  TRACK 107 AUDIO
    TITLE "TOEIC LR Kinnojyukugo_05_107"
    INDEX 01 02:25:38
  TRACK 108 AUDIO
    TITLE "TOEIC LR Kinnojyukugo_05_108"
    INDEX 01 02:26:00
  TRACK 109 AUDIO
    TITLE "TOEIC LR Kinnojyukugo_05_109"
    INDEX 01 02:28:09
  TRACK 110 AUDIO
    TITLE "TOEIC LR Kinnojyukugo_05_110"
    INDEX 01 02:29:09
  TRACK 111 AUDIO
    TITLE "TOEIC LR Kinnojyukugo_05_111"
    INDEX 01 02:30:35
  TRACK 112 AUDIO
    TITLE "TOEIC LR Kinnojyukugo_05_112"
    INDEX 01 02:30:73
  TRACK 113 AUDIO
    TITLE "TOEIC LR Kinnojyukugo_05_113"
    INDEX 01 02:33:08
  TRACK 114 AUDIO
    TITLE "TOEIC LR Kinnojyukugo_05_114"
    INDEX 01 02:34:08
  TRACK 115 AUDIO
    TITLE "TOEIC LR Kinnojyukugo_05_115"
    INDEX 01 02:35:29
  TRACK 116 AUDIO
    TITLE "TOEIC LR Kinnojyukugo_05_116"
    INDEX 01 02:35:66
  TRACK 117 AUDIO
    TITLE "TOEIC LR Kinnojyukugo_05_117"
    INDEX 01 02:37:63
  TRACK 118 AUDIO
    TITLE "TOEIC LR Kinnojyukugo_05_118"
    INDEX 01 02:38:62
  TRACK 119 AUDIO
    TITLE "TOEIC LR Kinnojyukugo_05_119"
    INDEX 01 02:40:01
  TRACK 120 AUDIO
    TITLE "TOEIC LR Kinnojyukugo_05_120"
    INDEX 01 02:40:38
  TRACK 121 AUDIO
    TITLE "TOEIC LR Kinnojyukugo_05_121"
    INDEX 01 02:42:74
  TRACK 122 AUDIO
    TITLE "TOEIC LR Kinnojyukugo_05_122"
    INDEX 01 02:44:00
  TRACK 123 AUDIO
    TITLE "TOEIC LR Kinnojyukugo_05_123"
    INDEX 01 02:45:15
  TRACK 124 AUDIO
    TITLE "TOEIC LR Kinnojyukugo_05_124"
    INDEX 01 02:45:53
  TRACK 125 AUDIO
    TITLE "TOEIC LR Kinnojyukugo_05_125"
    INDEX 01 02:48:06
  TRACK 126 AUDIO
    TITLE "TOEIC LR Kinnojyukugo_05_126"
    INDEX 01 02:49:07
  TRACK 127 AUDIO
    TITLE "TOEIC LR Kinnojyukugo_05_127"
    INDEX 01 02:50:22
  TRACK 128 AUDIO
    TITLE "TOEIC LR Kinnojyukugo_05_128"
    INDEX 01 02:50:60
  TRACK 129 AUDIO
    TITLE "TOEIC LR Kinnojyukugo_05_129"
    INDEX 01 02:53:27
  TRACK 130 AUDIO
    TITLE "TOEIC LR Kinnojyukugo_05_130"
    INDEX 01 02:54:28
  TRACK 131 AUDIO
    TITLE "TOEIC LR Kinnojyukugo_05_131"
    INDEX 01 02:55:41
  TRACK 132 AUDIO
    TITLE "TOEIC LR Kinnojyukugo_05_132"
    INDEX 01 02:56:05
  TRACK 133 AUDIO
    TITLE "TOEIC LR Kinnojyukugo_05_133"
    INDEX 01 02:58:16
  TRACK 134 AUDIO
    TITLE "TOEIC LR Kinnojyukugo_05_134"
    INDEX 01 02:59:15
  TRACK 135 AUDIO
    TITLE "TOEIC LR Kinnojyukugo_05_135"
    INDEX 01 03:00:40
  TRACK 136 AUDIO
    TITLE "TOEIC LR Kinnojyukugo_05_136"
    INDEX 01 03:01:03
  TRACK 137 AUDIO
    TITLE "TOEIC LR Kinnojyukugo_05_137"
    INDEX 01 03:03:35
  TRACK 138 AUDIO
    TITLE "TOEIC LR Kinnojyukugo_05_138"
    INDEX 01 03:04:34
  TRACK 139 AUDIO
    TITLE "TOEIC LR Kinnojyukugo_05_139"
    INDEX 01 03:05:45
  TRACK 140 AUDIO
    TITLE "TOEIC LR Kinnojyukugo_05_140"
    INDEX 01 03:06:08
  TRACK 141 AUDIO
    TITLE "TOEIC LR Kinnojyukugo_05_141"
    INDEX 01 03:08:07
  TRACK 142 AUDIO
    TITLE "TOEIC LR Kinnojyukugo_05_142"
    INDEX 01 03:09:04
  TRACK 143 AUDIO
    TITLE "TOEIC LR Kinnojyukugo_05_143"
    INDEX 01 03:10:35
  TRACK 144 AUDIO
    TITLE "TOEIC LR Kinnojyukugo_05_144"
    INDEX 01 03:11:01
  TRACK 145 AUDIO
    TITLE "TOEIC LR Kinnojyukugo_05_145"
    INDEX 01 03:13:27
  TRACK 146 AUDIO
    TITLE "TOEIC LR Kinnojyukugo_05_146"
    INDEX 01 03:14:29
  TRACK 147 AUDIO
    TITLE "TOEIC LR Kinnojyukugo_05_147"
    INDEX 01 03:16:28
  TRACK 148 AUDIO
    TITLE "TOEIC LR Kinnojyukugo_05_148"
    INDEX 01 03:16:65
  TRACK 149 AUDIO
    TITLE "TOEIC LR Kinnojyukugo_05_149"
    INDEX 01 03:19:42
  TRACK 150 AUDIO
    TITLE "TOEIC LR Kinnojyukugo_05_150"
    INDEX 01 03:20:43
  TRACK 151 AUDIO
    TITLE "TOEIC LR Kinnojyukugo_05_151"
    INDEX 01 03:22:56
  TRACK 152 AUDIO
    TITLE "TOEIC LR Kinnojyukugo_05_152"
    INDEX 01 03:23:18
  TRACK 153 AUDIO
    TITLE "TOEIC LR Kinnojyukugo_05_153"
    INDEX 01 03:25:48
  TRACK 154 AUDIO
    TITLE "TOEIC LR Kinnojyukugo_05_154"
    INDEX 01 03:26:50
  TRACK 155 AUDIO
    TITLE "TOEIC LR Kinnojyukugo_05_155"
    INDEX 01 03:28:11
  TRACK 156 AUDIO
    TITLE "TOEIC LR Kinnojyukugo_05_156"
    INDEX 01 03:28:50
  TRACK 157 AUDIO
    TITLE "TOEIC LR Kinnojyukugo_05_157"
    INDEX 01 03:30:73
  TRACK 158 AUDIO
    TITLE "TOEIC LR Kinnojyukugo_05_158"
    INDEX 01 03:31:72
  TRACK 159 AUDIO
    TITLE "TOEIC LR Kinnojyukugo_05_159"
    INDEX 01 03:33:22
  TRACK 160 AUDIO
    TITLE "TOEIC LR Kinnojyukugo_05_160"
    INDEX 01 03:33:63
  TRACK 161 AUDIO
    TITLE "TOEIC LR Kinnojyukugo_05_161"
    INDEX 01 03:35:58
  TRACK 162 AUDIO
    TITLE "TOEIC LR Kinnojyukugo_05_162"
    INDEX 01 03:36:60
  TRACK 163 AUDIO
    TITLE "TOEIC LR Kinnojyukugo_05_163"
    INDEX 01 03:38:04
  TRACK 164 AUDIO
    TITLE "TOEIC LR Kinnojyukugo_05_164"
    INDEX 01 03:38:43
  TRACK 165 AUDIO
    TITLE "TOEIC LR Kinnojyukugo_05_165"
    INDEX 01 03:40:71
  TRACK 166 AUDIO
    TITLE "TOEIC LR Kinnojyukugo_05_166"
    INDEX 01 03:42:00
  TRACK 167 AUDIO
    TITLE "TOEIC LR Kinnojyukugo_05_167"
    INDEX 01 03:43:36
  TRACK 168 AUDIO
    TITLE "TOEIC LR Kinnojyukugo_05_168"
    INDEX 01 03:44:06
  TRACK 169 AUDIO
    TITLE "TOEIC LR Kinnojyukugo_05_169"
    INDEX 01 03:46:07
  TRACK 170 AUDIO
    TITLE "TOEIC LR Kinnojyukugo_05_170"
    INDEX 01 03:47:09
  TRACK 171 AUDIO
    TITLE "TOEIC LR Kinnojyukugo_05_171"
    INDEX 01 03:48:37
  TRACK 172 AUDIO
    TITLE "TOEIC LR Kinnojyukugo_05_172"
    INDEX 01 03:49:00
  TRACK 173 AUDIO
    TITLE "TOEIC LR Kinnojyukugo_05_173"
    INDEX 01 03:51:04
  TRACK 174 AUDIO
    TITLE "TOEIC LR Kinnojyukugo_05_174"
    INDEX 01 03:52:06
  TRACK 175 AUDIO
    TITLE "TOEIC LR Kinnojyukugo_05_175"
    INDEX 01 03:53:31
  TRACK 176 AUDIO
    TITLE "TOEIC LR Kinnojyukugo_05_176"
    INDEX 01 03:53:70
  TRACK 177 AUDIO
    TITLE "TOEIC LR Kinnojyukugo_05_177"
    INDEX 01 03:55:51
  TRACK 178 AUDIO
    TITLE "TOEIC LR Kinnojyukugo_05_178"
    INDEX 01 03:56:53
  TRACK 179 AUDIO
    TITLE "TOEIC LR Kinnojyukugo_05_179"
    INDEX 01 03:58:03
  TRACK 180 AUDIO
    TITLE "TOEIC LR Kinnojyukugo_05_180"
    INDEX 01 03:58:48
  TRACK 181 AUDIO
    TITLE "TOEIC LR Kinnojyukugo_05_181"
    INDEX 01 04:00:23
  TRACK 182 AUDIO
    TITLE "TOEIC LR Kinnojyukugo_05_182"
    INDEX 01 04:01:24
  TRACK 183 AUDIO
    TITLE "TOEIC LR Kinnojyukugo_05_183"
    INDEX 01 04:02:53
  TRACK 184 AUDIO
    TITLE "TOEIC LR Kinnojyukugo_05_184"
    INDEX 01 04:03:15
  TRACK 185 AUDIO
    TITLE "TOEIC LR Kinnojyukugo_05_185"
    INDEX 01 04:05:12
  TRACK 186 AUDIO
    TITLE "TOEIC LR Kinnojyukugo_05_186"
    INDEX 01 04:06:12
  TRACK 187 AUDIO
    TITLE "TOEIC LR Kinnojyukugo_05_187"
    INDEX 01 04:07:33
  TRACK 188 AUDIO
    TITLE "TOEIC LR Kinnojyukugo_05_188"
    INDEX 01 04:07:70
  TRACK 189 AUDIO
    TITLE "TOEIC LR Kinnojyukugo_05_189"
    INDEX 01 04:10:66
  TRACK 190 AUDIO
    TITLE "TOEIC LR Kinnojyukugo_05_190"
    INDEX 01 04:11:70
  TRACK 191 AUDIO
    TITLE "TOEIC LR Kinnojyukugo_05_191"
    INDEX 01 04:13:71
  TRACK 192 AUDIO
    TITLE "TOEIC LR Kinnojyukugo_05_192"
    INDEX 01 04:14:35
  TRACK 193 AUDIO
    TITLE "TOEIC LR Kinnojyukugo_05_193"
    INDEX 01 04:17:02
  TRACK 194 AUDIO
    TITLE "TOEIC LR Kinnojyukugo_05_194"
    INDEX 01 04:18:03
  TRACK 195 AUDIO
    TITLE "TOEIC LR Kinnojyukugo_05_195"
    INDEX 01 04:20:37
  TRACK 196 AUDIO
    TITLE "TOEIC LR Kinnojyukugo_05_196"
    INDEX 01 04:21:00
  TRACK 197 AUDIO
    TITLE "TOEIC LR Kinnojyukugo_05_197"
    INDEX 01 04:23:34
  TRACK 198 AUDIO
    TITLE "TOEIC LR Kinnojyukugo_05_198"
    INDEX 01 04:24:35
  TRACK 199 AUDIO
    TITLE "TOEIC LR Kinnojyukugo_05_199"
    INDEX 01 04:26:58
  TRACK 200 AUDIO
    TITLE "TOEIC LR Kinnojyukugo_05_200"
    INDEX 01 04:27:20
  TRACK 201 AUDIO
    TITLE "TOEIC LR Kinnojyukugo_05_201"
    INDEX 01 04:29:60
  TRACK 202 AUDIO
    TITLE "TOEIC LR Kinnojyukugo_05_202"
    INDEX 01 04:30:61
  TRACK 203 AUDIO
    TITLE "TOEIC LR Kinnojyukugo_05_203"
    INDEX 01 04:32:03
  TRACK 204 AUDIO
    TITLE "TOEIC LR Kinnojyukugo_05_204"
    INDEX 01 04:32:41
  TRACK 205 AUDIO
    TITLE "TOEIC LR Kinnojyukugo_05_205"
    INDEX 01 04:34:65
  TRACK 206 AUDIO
    TITLE "TOEIC LR Kinnojyukugo_05_206"
    INDEX 01 04:35:66
  TRACK 207 AUDIO
    TITLE "TOEIC LR Kinnojyukugo_05_207"
    INDEX 01 04:37:54
  TRACK 208 AUDIO
    TITLE "TOEIC LR Kinnojyukugo_05_208"
    INDEX 01 04:38:18
  TRACK 209 AUDIO
    TITLE "TOEIC LR Kinnojyukugo_05_209"
    INDEX 01 04:41:14
  TRACK 210 AUDIO
    TITLE "TOEIC LR Kinnojyukugo_05_210"
    INDEX 01 04:42:16
  TRACK 211 AUDIO
    TITLE "TOEIC LR Kinnojyukugo_05_211"
    INDEX 01 04:44:34
  TRACK 212 AUDIO
    TITLE "TOEIC LR Kinnojyukugo_05_212"
    INDEX 01 04:44:69
  TRACK 213 AUDIO
    TITLE "TOEIC LR Kinnojyukugo_05_213"
    INDEX 01 04:47:17
  TRACK 214 AUDIO
    TITLE "TOEIC LR Kinnojyukugo_05_214"
    INDEX 01 04:48:18
  TRACK 215 AUDIO
    TITLE "TOEIC LR Kinnojyukugo_05_215"
    INDEX 01 04:50:52
  TRACK 216 AUDIO
    TITLE "TOEIC LR Kinnojyukugo_05_216"
    INDEX 01 04:51:13
  TRACK 217 AUDIO
    TITLE "TOEIC LR Kinnojyukugo_05_217"
    INDEX 01 04:53:33
  TRACK 218 AUDIO
    TITLE "TOEIC LR Kinnojyukugo_05_218"
    INDEX 01 04:54:32
  TRACK 219 AUDIO
    TITLE "TOEIC LR Kinnojyukugo_05_219"
    INDEX 01 04:56:57
  TRACK 220 AUDIO
    TITLE "TOEIC LR Kinnojyukugo_05_220"
    INDEX 01 04:57:17
  TRACK 221 AUDIO
    TITLE "TOEIC LR Kinnojyukugo_05_221"
    INDEX 01 05:00:64
